<svg width="235" height="42" viewBox="0 0 235 42" fill="none" xmlns="http://www.w3.org/2000/svg">
<path d="M42.1041 11.3485C42.2196 11.3485 42.312 11.2566 42.312 11.1417V0H31.8015C31.6861 0 31.5938 0.0919268 31.5938 0.206837C31.5938 0.287274 31.6399 0.358518 31.7115 0.392991C36.3456 2.57169 40.0169 6.44876 41.9125 11.2198C41.9448 11.298 42.0187 11.3508 42.1041 11.3508V11.3485Z" fill="#F12C2C"/>
<path d="M40.4923 20.2611C40.4253 17.9032 39.9566 15.6463 39.1439 13.5596C37.2482 8.68967 33.5077 4.73446 28.7743 2.54657C26.1837 1.3492 23.2974 0.68042 20.2542 0.68042C9.06961 0.68042 0 9.70547 0 20.8403C0 31.9751 9.0673 41.0001 20.2542 41.0001C22.2746 41.0001 24.2256 40.7037 26.0659 40.1567V28.3623C24.4565 29.5964 22.4431 30.3319 20.2542 30.3319C14.9875 30.3319 10.7205 26.0825 10.7205 20.8426C10.7205 15.6027 14.9898 11.3533 20.2542 11.3533C25.5187 11.3533 29.7879 15.6027 29.7879 20.8426C29.7879 20.9207 29.7833 20.9966 29.781 21.0747H29.7879V21.6424V41.0001H40.5062V20.2634H40.4923V20.2611Z" fill="#F12C2C"/>
<path d="M56.2965 20.3858V40.8431H51.9585V12.7593H56.7305L66.2386 28.3855L75.7108 12.7593H80.5188V40.8431H76.1448V20.3858L66.2386 35.9758L56.2965 20.3858Z" fill="#353535"/>
<path d="M105.103 14.2904C107.153 15.5118 108.749 17.2103 109.894 19.3861C111.04 21.5619 111.611 24.0362 111.611 26.8023C111.611 29.5684 111.038 32.0427 109.894 34.2185C108.749 36.3942 107.153 38.095 105.103 39.3141C103.054 40.5354 100.729 41.1438 98.125 41.1438C95.521 41.1438 93.2323 40.5332 91.1829 39.3141C89.1335 38.0928 87.5372 36.3942 86.3918 34.2185C85.2464 32.0427 84.6748 29.5706 84.6748 26.8023C84.6748 24.0339 85.2464 21.5619 86.3918 19.3861C87.5372 17.2103 89.1335 15.5118 91.1829 14.2904C93.2302 13.0691 95.5442 12.4607 98.125 12.4607C100.706 12.4607 103.054 13.0714 105.103 14.2904ZM102.933 35.8808C104.307 35.0123 105.368 33.7978 106.115 32.2394C106.863 30.6789 107.235 28.8672 107.235 26.8045C107.235 24.7418 106.86 22.9302 106.115 21.3696C105.368 19.809 104.307 18.5945 102.933 17.7282C101.559 16.8597 99.9564 16.4255 98.125 16.4255C96.2937 16.4255 94.727 16.8597 93.353 17.7282C91.979 18.5967 90.9183 19.8113 90.1709 21.3696C89.4236 22.9302 89.0509 24.7418 89.0509 26.8045C89.0509 28.8672 89.4236 30.6789 90.1709 32.2394C90.9183 33.8 91.979 35.0146 93.353 35.8808C94.727 36.7493 96.3297 37.1836 98.161 37.1836C99.9924 37.1836 101.559 36.7493 102.933 35.8808Z" fill="#353535"/>
<path d="M131.476 14.555C133.513 15.7514 135.097 17.4115 136.231 19.5375C137.364 21.6635 137.932 24.0858 137.932 26.8044C137.932 29.523 137.364 31.9453 136.231 34.0713C135.099 36.1974 133.513 37.8597 131.476 39.0539C129.44 40.2504 127.119 40.8475 124.517 40.8475H115.407V12.7637H124.517C127.119 12.7637 129.44 13.3608 131.476 14.5572V14.555ZM129.27 35.6365C130.657 34.8064 131.728 33.6235 132.488 32.0878C133.248 30.5521 133.627 28.7925 133.627 26.8044C133.627 24.8164 133.248 23.0545 132.488 21.5211C131.728 19.9853 130.657 18.8025 129.27 17.9724C127.884 17.1424 126.275 16.7262 124.443 16.7262L119.743 16.7647V36.8465L124.443 36.8849C126.275 36.8849 127.884 36.4688 129.27 35.6387V35.6365Z" fill="#353535"/>
<path d="M146.987 39.6375C145.287 38.6559 143.968 37.3034 143.028 35.58C142.088 33.8566 141.618 31.8753 141.618 29.6339V12.7615H145.956V29.6339C145.956 31.0927 146.239 32.3706 146.805 33.4653C147.37 34.5599 148.166 35.4081 149.191 36.012C150.215 36.6159 151.401 36.9189 152.752 36.9189C154.103 36.9189 155.294 36.6181 156.332 36.012C157.367 35.4081 158.17 34.5599 158.737 33.4653C159.302 32.3706 159.586 31.0927 159.586 29.6339V12.7615H163.924V29.6339C163.924 31.873 163.454 33.8566 162.514 35.58C161.574 37.3034 160.255 38.6559 158.555 39.6375C156.855 40.6191 154.922 41.1099 152.752 41.1099C150.582 41.1099 148.685 40.6191 146.985 39.6375H146.987Z" fill="#353535"/>
<path d="M173.144 36.9189H186.158V40.8453H168.804V12.7615H173.142V36.9189H173.144Z" fill="#353535"/>
<path d="M194.782 39.6375C193.082 38.6559 191.763 37.3034 190.823 35.58C189.883 33.8566 189.413 31.8753 189.413 29.6339V12.7615H193.751V29.6339C193.751 31.0927 194.034 32.3706 194.6 33.4653C195.165 34.5599 195.961 35.4081 196.986 36.012C198.01 36.6159 199.196 36.9189 200.547 36.9189C201.897 36.9189 203.089 36.6181 204.127 36.012C205.162 35.4081 205.964 34.5599 206.532 33.4653C207.097 32.3706 207.381 31.0927 207.381 29.6339V12.7615H211.719V29.6339C211.719 31.873 211.249 33.8566 210.309 35.58C209.369 37.3034 208.05 38.6559 206.35 39.6375C204.65 40.6191 202.717 41.1099 200.547 41.1099C198.377 41.1099 196.48 40.6191 194.78 39.6375H194.782Z" fill="#353535"/>
<path d="M221.66 36.1274C222.816 36.8059 223.939 37.1474 225.023 37.1474C226.106 37.1474 227.072 36.971 227.915 36.6182C228.757 36.2654 229.426 35.7497 229.922 35.0712C230.415 34.3927 230.663 33.6237 230.663 32.7687C230.663 32.0382 230.421 31.4162 229.939 30.9006C229.456 30.3849 228.848 29.9755 228.114 29.6747C227.379 29.3716 226.361 29.0075 225.058 28.58C223.227 28.0259 221.732 27.4741 220.574 26.9199C219.418 26.3658 218.43 25.5493 217.61 24.466C216.791 23.3849 216.393 21.9736 216.416 20.2388C216.44 18.728 216.838 17.389 217.61 16.2197C218.381 15.0504 219.465 14.1435 220.864 13.5011C222.262 12.8588 223.852 12.5512 225.636 12.5761C227.178 12.601 228.715 13.0104 230.245 13.802C231.776 14.5936 233.036 15.6317 234.025 16.9163L230.843 19.558C230.167 18.6262 229.348 17.8844 228.385 17.3302C227.421 16.7761 226.481 16.4866 225.564 16.4617C224.142 16.4617 222.986 16.8214 222.094 17.5383C221.203 18.2553 220.756 19.1803 220.756 20.3134C220.756 21.0937 221.004 21.7474 221.497 22.2766C221.991 22.8059 222.624 23.2401 223.394 23.5794C224.165 23.9186 225.213 24.3144 226.54 24.769C228.349 25.3729 229.818 25.9519 230.951 26.506C232.083 27.0602 233.046 27.8518 233.843 28.8831C234.639 29.9145 235.024 31.2353 234.998 32.8456C234.975 34.456 234.535 35.8899 233.68 37.1497C232.824 38.4072 231.636 39.3775 230.118 40.056C228.6 40.7345 226.888 41.076 224.984 41.076C223.225 41.0263 221.472 40.5468 219.723 39.6421C217.975 38.7374 216.524 37.5659 215.366 36.1319L218.62 33.4902C219.488 34.5713 220.5 35.4534 221.656 36.1319L221.66 36.1274Z" fill="#353535"/>
</svg>
